Coordinates
version=1
nRows=27
nColumns=19
inDegrees=yes

Units are S.I. units (second, meters, Newtons, ...)
If the header above contains a line with 'inDegrees', this indicates whether rotational values are in degrees (yes) or radians (no).

endheader
time	pelvis_tilt	pelvis_list	pelvis_rotation	pelvis_tx	pelvis_ty	pelvis_tz	hip_flexion_r	hip_adduction_r	hip_rotation_r	knee_angle_r	knee_angle_r_beta	ankle_angle_r	hip_flexion_l	hip_adduction_l	hip_rotation_l	knee_angle_l	knee_angle_l_beta	ankle_angle_l
     17.04000000	     -4.51216575	      6.13989997	      3.85601866	      2.47553741	      0.95296301	      1.04764463	    -11.95561234	    -12.47695526	    -23.39540986	     43.35485291	      0.75668493	    -15.04052136	     18.98671762	      9.44615928	     -3.41976434	      3.70313048	      0.06463182	      5.55491981
     17.04666667	     -3.32461308	      7.04517739	      3.99293970	      2.47514703	      0.95047271	      1.04676759	    -12.48742892	    -13.79211542	    -22.97552177	     46.26368881	      0.80745369	    -13.97546150	     18.07593540	     10.37623384	     -3.89666735	      5.67707002	      0.09908356	      5.16042194
     17.05333333	     -2.07153851	      7.92907780	      4.09413711	      2.47444119	      0.94771338	      1.04598749	    -12.96051191	    -15.05870890	    -22.46338213	     49.24990231	      0.85957295	    -12.93864065	     17.26576708	     11.20820929	     -4.63768762	      8.16441231	      0.14249588	      4.87614605
     17.06000000	     -0.79982019	      8.81875148	      4.25075490	      2.47353963	      0.94468810	      1.04530476	    -13.39877852	    -16.22509069	    -21.88996559	     52.20027132	      0.91106660	    -11.80251441	     16.51330603	     11.99403374	     -5.38572028	     10.98541779	      0.19173171	      4.72130341
     17.06666667	      0.45484502	      9.63722263	      4.41684734	      2.47236699	      0.94145379	      1.04474995	    -13.71362593	    -17.26406493	    -21.27297746	     55.15481373	      0.96263310	    -10.63313647	     15.81312948	     12.65339559	     -6.09656105	     13.97593641	      0.24392611	      4.72991965
     17.07333333	      1.63960213	     10.36784869	      4.57587814	      2.47097780	      0.93798879	      1.04429208	    -13.83167199	    -18.19146989	    -20.60759756	     58.10180018	      1.01406771	     -9.55767229	     15.24083362	     13.15787002	     -6.84800924	     17.16700356	      0.29962073	      5.11304128
     17.08000000	      2.72557491	     11.02504156	      4.77995605	      2.46934476	      0.93445368	      1.04391906	    -13.74820270	    -18.96251895	    -19.88306557	     60.98264617	      1.06434796	     -8.42739896	     14.70327772	     13.58159598	     -7.36745398	     20.27893822	      0.35393424	      5.73115814
     17.08666667	      3.16590580	     11.33557802	      5.02495421	      2.46739752	      0.93032493	      1.04350561	    -12.69163109	    -19.35019685	    -18.80127591	     63.90245590	      1.11530826	     -7.30877860	     14.93725430	     13.64899750	     -7.82910431	     23.56009326	      0.41120120	      6.68938758
     17.09333333	      4.21302183	     11.92110829	      5.24526986	      2.46546589	      0.92711657	      1.04325805	    -12.41729518	    -19.99545246	    -18.12588108	     66.57201546	      1.16190086	     -6.11622109	     14.19999885	     14.02618492	     -7.94061707	     26.29200427	      0.45888204	      7.82571394
     17.10000000	      4.43691470	     12.10490370	      5.49576510	      2.46318011	      0.92336831	      1.04295671	    -10.91084288	    -20.19943604	    -16.97097465	     69.27248954	      1.20903302	     -4.93871700	     14.38001906	     14.04417479	     -7.97877041	     29.04348777	      0.50690449	      9.22978248
     17.10666667	      4.77923263	     12.30849493	      5.71320338	      2.46086180	      0.92021009	      1.04273787	     -9.49917819	    -20.41539487	    -15.91665644	     71.76576188	      1.25254884	     -3.75739467	     14.21850950	     14.12088965	     -7.83206487	     31.40378927	      0.54809952	     10.75357941
     17.11333333	      4.86656787	     12.37228471	      5.89329109	      2.45848369	      0.91727195	      1.04251806	     -7.66586891	    -20.47748964	    -14.71999390	     74.10919420	      1.29344944	     -2.60815415	     14.17806468	     14.10401892	     -7.60641805	     33.46823806	      0.58413095	     12.36067132
     17.12000000	      4.73724489	     12.31023210	      6.03443247	      2.45609134	      0.91468397	      1.04232728	     -5.48230120	    -20.40943186	    -13.45179124	     76.25810387	      1.33095499	     -1.50789752	     14.19707527	     14.00102389	     -7.32225534	     35.19559305	      0.61427898	     13.95062233
     17.12666667	      5.31722898	     12.42053385	      6.24160769	      2.45380121	      0.91366217	      1.04207164	     -4.28132036	    -20.44855752	    -12.63442465	     77.94807096	      1.36045048	     -0.63886970	     13.08976409	     14.13853134	     -6.57589367	     36.30113745	      0.63357437	     15.29684435
     17.13333333	      4.05413517	     11.81913859	      6.08869979	      2.45155495	      0.91089908	      1.04208362	     -0.41099751	    -19.86106263	    -10.77311666	     79.80468255	      1.39285447	      0.44645376	     14.12539499	     13.47380604	     -6.78420666	     37.56044616	      0.65555345	     16.88072376
     17.14000000	      4.43763413	     11.68503641	      6.20666942	      2.44951199	      0.91087958	      1.04176769	      1.06035257	    -19.68686366	    -10.04404395	     80.93605584	      1.41260066	      1.21457411	     12.87078779	     13.38827254	     -6.05825504	     37.99983141	      0.66322217	     17.98921520
     17.14666667	      3.25210450	     11.01616874	      5.75403993	      2.44784745	      0.90951384	      1.04207122	      4.82381320	    -18.94477670	     -8.23576949	     82.10498379	      1.43300230	      2.02700875	     13.34478681	     12.60021323	     -6.47756901	     38.36787461	      0.66964574	     19.14522232
     17.15333333	      3.10117982	     10.57509314	      5.41113099	      2.44652867	      0.91004916	      1.04215531	      7.04537502	    -18.44154057	     -7.17403144	     82.68394559	      1.44310709	      2.68388583	     12.33711731	     12.07992225	     -6.45329077	     38.14268729	      0.66571548	     19.97679968
     17.16000000	      3.04511705	     10.10121802	      5.34082257	      2.44563338	      0.91132740	      1.04178799	      8.84822320	    -18.01362177	     -6.71906201	     82.83062496	      1.44566713	      3.33657533	     10.98469785	     11.62527096	     -6.03402662	     37.55690581	      0.65549166	     20.66307716
     17.16666667	      2.89230841	      9.57701271	      4.78047669	      2.44502969	      0.91288889	      1.04194035	     10.92269056	    -17.48200176	     -5.88793837	     82.75820491	      1.44440316	      3.82789620	      9.62430797	     10.96454411	     -6.37041042	     36.67932928	      0.64017506	     21.03712349
     17.17333333	      2.78591753	      9.03908668	      4.44932444	      2.44491037	      0.91505543	      1.04165162	     12.62053374	    -17.01590949	     -5.54785258	     82.25533544	      1.43562643	      4.38758207	      7.99994419	     10.42228605	     -6.28602339	     35.46552558	      0.61899019	     21.26529772
     17.18000000	      2.93789219	      8.50635432	      4.13327036	      2.44529853	      0.91792459	      1.04128009	     13.80231452	    -16.64359389	     -5.57129384	     81.37076329	      1.42018773	      4.96773288	      5.91185398	      9.88168824	     -6.19681789	     33.93656545	      0.59230480	     21.27668360
     17.18666667	      3.34449340	      7.93174413	      3.91260534	      2.44605237	      0.92151498	      1.04068296	     14.45554892	    -16.34482731	     -6.04057774	     80.10379958	      1.39807505	      5.45364517	      3.39667045	      9.31360429	     -5.98846949	     32.12045987	      0.56060778	     21.02851412
     17.19333333	      3.12383324	      7.25603199	      3.81475843	      2.44707351	      0.92457043	      1.03993007	     15.66876533	    -15.98228318	     -6.66554244	     78.63290601	      1.37240311	      5.96444476	      1.56212964	      8.69566668	     -5.71553002	     30.32325559	      0.52924065	     20.58687262
     17.20000000	      4.00828572	      6.63928262	      3.75224370	      2.44867055	      0.92920061	      1.03906849	     15.29215052	    -15.80708184	     -7.91333280	     76.67370534	      1.33820861	      6.57184438	     -1.69790594	      8.07417375	     -5.32939543	     28.08260741	      0.49013396	     19.87161988
     17.20666667	      4.30727025	      5.91846878	      3.82541194	      2.45043622	      0.93326484	      1.03811064	     15.42859586	    -15.54554081	     -9.33416354	     74.52920220	      1.30077997	      7.09774852	     -4.26401420	      7.36316022	     -4.87900384	     25.93510615	      0.45265299	     18.90746767
     17.21333333	      4.57242910	      5.11807817	      4.00481225	      2.45240659	      0.93737300	      1.03714517	     15.40343222	    -15.21346489	    -11.06156206	     72.11385505	      1.25862421	      7.63188112	     -6.75445240	      6.52850371	     -4.38585896	     23.83103653	      0.41593005	     17.69557559
